<svg xmlns="http://www.w3.org/2000/svg" width="1024" height="1024" viewBox="0 0 1024 1024">
  <defs>
    <linearGradient id="bg" x1="0" y1="0" x2="1" y2="1">
      <stop offset="0" stop-color="#DCEEF4"/>
      <stop offset="1" stop-color="#9FC8D8"/>
    </linearGradient>
  </defs>
  <rect width="1024" height="1024" rx="224" fill="url(#bg)"/>
  <path d="M488.62 458.63 L488.62 367.91 L327.97 367.91 L327.97 458.63 Z M413.83 234.53 L305.29 234.53 L305.29 263.69 L374.68 263.69 C373.87 269.09 372.79 274.22 371.44 279.08 L291.79 280.97 L297.46 309.86 L357.94 305.00 C343.36 323.09 320.68 335.78 291.79 341.72 L305.56 370.61 C373.87 351.98 411.13 309.32 413.83 234.53 Z M452.17 308.24 L452.17 358.19 L488.62 358.19 L488.62 220.76 L452.17 220.76 L452.17 279.35 L411.94 279.35 L411.94 308.24 Z M452.17 431.09 L363.88 431.09 L363.88 394.91 L452.17 394.91 Z M718.01 462.95 L718.01 440.81 L581.12 440.81 L581.12 432.71 L712.61 432.71 L712.61 380.87 L544.94 380.87 L544.94 403.82 L676.97 403.82 L676.97 412.19 L545.21 412.19 L545.21 462.95 Z M666.44 367.37 C665.90 359.00 665.36 350.90 664.55 342.53 C647.54 344.42 630.53 345.77 613.25 346.85 L613.25 342.53 C638.09 339.02 654.83 328.22 654.83 314.18 C654.83 295.01 629.72 282.32 595.16 282.32 C560.33 282.32 536.03 295.01 536.03 313.91 C536.03 328.22 552.23 339.02 577.34 342.53 L577.34 348.47 L558.44 348.47 C544.13 348.47 530.63 348.20 517.94 347.66 C519.29 356.84 520.64 365.75 522.26 374.66 C560.87 374.66 619.73 372.23 666.44 367.37 Z M740.42 316.61 L740.42 287.45 L712.61 287.45 L712.61 220.76 L677.24 220.76 L677.24 370.34 L712.61 370.34 L712.61 316.61 Z M662.12 278.81 L662.12 254.24 L524.96 254.24 L524.96 278.81 Z M563.03 247.22 L629.72 247.22 L629.72 223.46 L563.03 223.46 Z M618.92 314.18 C618.92 318.23 611.63 322.28 595.16 322.28 C578.69 322.28 571.40 318.23 571.40 314.18 C571.40 308.24 578.96 305.27 595.16 305.27 C611.63 305.27 618.92 308.24 618.92 314.18 Z" fill="#20313D"/>
  <path d="M318.25 747.70 L451.45 747.70 L451.45 715.00 L372.85 715.00 L394.15 693.40 C415.15 671.50 450.85 634.90 450.85 597.70 C450.85 559.90 427.45 538.60 380.05 538.60 C356.05 538.60 335.05 545.20 320.65 553.30 L326.05 583.60 C337.45 577.60 354.55 571.30 367.45 571.30 C392.95 571.30 406.75 579.40 406.75 603.70 C406.75 628.00 382.15 655.00 353.95 685.00 L318.25 723.10 Z M681.65 780.70 L681.65 668.50 L642.05 668.50 L642.05 697.30 L541.25 697.30 L541.25 669.10 L501.65 669.10 L501.65 780.70 Z M683.75 526.30 L504.05 526.30 L504.05 557.80 L644.15 557.80 C644.45 574.90 641.45 603.70 637.85 618.10 L470.75 618.10 L470.75 649.30 L712.25 649.30 L712.25 618.10 L674.75 618.10 C680.75 592.30 684.35 556.90 683.75 526.30 Z M642.05 749.80 L541.25 749.80 L541.25 727.00 L642.05 727.00 Z" fill="#20313D"/>
</svg>